<svg width="114" height="42" viewBox="0 0 114 42" fill="none" xmlns="http://www.w3.org/2000/svg">
<path d="M39.57 32C37.81 32 36.52 31.56 35.7 30.68C34.9 29.8 34.5 28.66 34.5 27.26V16.55H38.85V26.75C38.85 27.95 39.45 28.55 40.65 28.55H46.89C48.09 28.55 48.69 27.95 48.69 26.75V16.55H53.04V27.26C53.04 28.66 52.63 29.8 51.81 30.68C51.01 31.56 49.73 32 47.97 32H39.57ZM56.1832 32V16.55H60.5332V32H56.1832ZM56.1532 14V10.61H60.5632V14H56.1532ZM63.8297 32V10.55H68.1797V32H63.8297ZM90.4962 32V10.55H86.1462V32H90.4962ZM89.7462 32V28.55H79.3962C78.0962 28.55 77.0962 28.2 76.3962 27.5C75.7162 26.78 75.3762 25.71 75.3762 24.29C75.3762 22.85 75.7162 21.78 76.3962 21.08C77.0962 20.36 78.0962 20 79.3962 20H89.4462V16.55H79.3962C76.7162 16.55 74.6262 17.21 73.1262 18.53C71.6262 19.85 70.8762 21.77 70.8762 24.29C70.8762 26.79 71.6262 28.7 73.1262 30.02C74.6262 31.34 76.7162 32 79.3962 32H89.7462ZM93.3504 32V28.82L105.53 20H93.8604V16.55H111.89V19.73L99.7104 28.55H111.89V32H93.3504Z" fill="white"/>
<path d="M2.45 33V8.045L23.52 7.975C26.2967 7.975 28.35 8.55833 29.68 9.725C31.0333 10.8683 31.71 12.595 31.71 14.905C31.71 17.215 30.94 18.9067 29.4 19.98C30.4267 20.54 31.185 21.2867 31.675 22.22C32.165 23.13 32.41 24.3083 32.41 25.755C32.41 28.1117 31.7333 29.9083 30.38 31.145C29.05 32.3583 26.9967 32.965 24.22 32.965L2.45 33ZM22.855 12.455H8.05V18.055H22.855C24.9783 18.055 26.04 17.0983 26.04 15.185C26.04 13.365 24.9783 12.455 22.855 12.455ZM23.555 22.535H8.05V28.485H23.555C25.6783 28.485 26.74 27.4817 26.74 25.475C26.74 23.515 25.6783 22.535 23.555 22.535Z" fill="white"/>
</svg>
