<svg width="22" height="24" viewBox="0 0 22 24" fill="none" xmlns="http://www.w3.org/2000/svg">
<path d="M10.3533 0V3.80846H11.6469V0H10.3532H10.3533V0ZM5.07107 1.1445L4.01123 1.88656L6.19529 5.00548L7.25455 4.2634L5.07107 1.1445ZM16.9288 1.1445L14.7454 4.26342L15.8048 5.0055L17.9888 1.88656L16.929 1.1445H16.9288V1.1445ZM10.9998 4.85048C7.83525 4.85048 5.26993 6.77214 5.26993 9.14298L8.52537 19.0019H13.4748L16.7299 9.14298C16.7299 6.77218 14.1648 4.85048 11.0001 4.85048H10.9998V4.85048ZM0.709314 5.99346L0.267334 7.20974L3.84431 8.51202L4.28793 7.29632L0.709234 5.99346H0.709314V5.99346ZM21.2906 5.99346L17.7118 7.29642L18.154 8.51226L21.7327 7.20976L21.2906 5.99346V5.99346ZM4.11513 11.5536L0.437134 12.5401L0.770854 13.7888L4.44885 12.8037L4.11519 11.5536H4.11513V11.5536ZM17.8847 11.5536L17.5513 12.8036L21.2293 13.7886L21.5627 12.5399L17.8847 11.5536V11.5536V11.5536ZM8.45321 19.7206V21.4344H13.547V19.7209H8.45323L8.45321 19.7206ZM8.45321 22.2863V24H13.547V22.2866H8.45323L8.45321 22.2863Z" fill="#212136"/>
</svg>
